<mxfile host="app.diagrams.net" modified="2022-08-08T04:31:36.950Z" agent="5.0 (Windows)" etag="siWUvb_7c3wnC7YSC5I0" version="20.2.2" type="github">
  <diagram id="zPxW0dLrCj28nR0AsI7d" name="第 1 页">
    <mxGraphModel dx="1030" dy="528" grid="0" gridSize="10" guides="1" tooltips="1" connect="1" arrows="1" fold="1" page="1" pageScale="1" pageWidth="827" pageHeight="1169" math="0" shadow="0">
      <root>
        <mxCell id="0" />
        <mxCell id="1" parent="0" />
        <mxCell id="vRosTqXco8kiV0ABXzTQ-50" value="" style="rounded=0;whiteSpace=wrap;html=1;fontSize=18;dashed=1;strokeColor=#FF9933;strokeWidth=2;fontColor=#9999FF;" vertex="1" parent="1">
          <mxGeometry x="247.75" y="434" width="480.5" height="124" as="geometry" />
        </mxCell>
        <mxCell id="vRosTqXco8kiV0ABXzTQ-37" value="" style="rounded=0;whiteSpace=wrap;html=1;fontSize=18;dashed=1;strokeColor=#3333FF;strokeWidth=2;fontColor=#9999FF;" vertex="1" parent="1">
          <mxGeometry x="249" y="237" width="480.5" height="174" as="geometry" />
        </mxCell>
        <mxCell id="vRosTqXco8kiV0ABXzTQ-17" value="" style="rounded=0;whiteSpace=wrap;html=1;fontSize=18;dashed=1;strokeColor=#FF0000;strokeWidth=2;fontColor=#FF3333;" vertex="1" parent="1">
          <mxGeometry x="249" y="94" width="480.5" height="124" as="geometry" />
        </mxCell>
        <mxCell id="vRosTqXco8kiV0ABXzTQ-21" style="edgeStyle=orthogonalEdgeStyle;rounded=0;orthogonalLoop=1;jettySize=auto;html=1;entryX=0;entryY=0.5;entryDx=0;entryDy=0;fontSize=18;fontColor=#FF0000;strokeWidth=2;" edge="1" parent="1" source="vRosTqXco8kiV0ABXzTQ-14" target="vRosTqXco8kiV0ABXzTQ-19">
          <mxGeometry relative="1" as="geometry" />
        </mxCell>
        <mxCell id="vRosTqXco8kiV0ABXzTQ-14" value="文本检测" style="rounded=1;whiteSpace=wrap;html=1;fontSize=18;" vertex="1" parent="1">
          <mxGeometry x="269" y="150" width="120" height="45" as="geometry" />
        </mxCell>
        <mxCell id="vRosTqXco8kiV0ABXzTQ-18" value="&lt;font style=&quot;font-size: 20px;&quot;&gt;自动归档模块&lt;/font&gt;" style="text;html=1;strokeColor=none;fillColor=none;align=center;verticalAlign=middle;whiteSpace=wrap;rounded=0;dashed=1;fontSize=18;fontColor=#FF3333;" vertex="1" parent="1">
          <mxGeometry x="256" y="96" width="125" height="37" as="geometry" />
        </mxCell>
        <mxCell id="vRosTqXco8kiV0ABXzTQ-22" style="edgeStyle=orthogonalEdgeStyle;rounded=0;orthogonalLoop=1;jettySize=auto;html=1;fontSize=18;fontColor=#FF0000;strokeWidth=2;" edge="1" parent="1" source="vRosTqXco8kiV0ABXzTQ-19" target="vRosTqXco8kiV0ABXzTQ-20">
          <mxGeometry relative="1" as="geometry" />
        </mxCell>
        <mxCell id="vRosTqXco8kiV0ABXzTQ-55" style="edgeStyle=orthogonalEdgeStyle;rounded=0;orthogonalLoop=1;jettySize=auto;html=1;entryX=1;entryY=0.5;entryDx=0;entryDy=0;entryPerimeter=0;fontSize=16;fontColor=#000000;strokeWidth=2;" edge="1" parent="1" source="vRosTqXco8kiV0ABXzTQ-19" target="vRosTqXco8kiV0ABXzTQ-45">
          <mxGeometry relative="1" as="geometry">
            <Array as="points">
              <mxPoint x="488" y="135" />
              <mxPoint x="744" y="135" />
              <mxPoint x="744" y="512" />
            </Array>
          </mxGeometry>
        </mxCell>
        <mxCell id="vRosTqXco8kiV0ABXzTQ-19" value="文本识别" style="rounded=1;whiteSpace=wrap;html=1;fontSize=18;" vertex="1" parent="1">
          <mxGeometry x="428" y="150" width="120" height="45" as="geometry" />
        </mxCell>
        <mxCell id="vRosTqXco8kiV0ABXzTQ-20" value="文本分类" style="rounded=1;whiteSpace=wrap;html=1;fontSize=18;" vertex="1" parent="1">
          <mxGeometry x="590" y="150" width="120" height="45" as="geometry" />
        </mxCell>
        <mxCell id="vRosTqXco8kiV0ABXzTQ-40" style="edgeStyle=orthogonalEdgeStyle;rounded=0;orthogonalLoop=1;jettySize=auto;html=1;entryX=0;entryY=0.5;entryDx=0;entryDy=0;fontSize=18;fontColor=#9999FF;strokeWidth=2;" edge="1" parent="1" source="vRosTqXco8kiV0ABXzTQ-24" target="vRosTqXco8kiV0ABXzTQ-14">
          <mxGeometry relative="1" as="geometry" />
        </mxCell>
        <mxCell id="vRosTqXco8kiV0ABXzTQ-41" style="edgeStyle=orthogonalEdgeStyle;rounded=0;orthogonalLoop=1;jettySize=auto;html=1;fontSize=18;fontColor=#9999FF;strokeWidth=2;" edge="1" parent="1" source="vRosTqXco8kiV0ABXzTQ-24" target="vRosTqXco8kiV0ABXzTQ-25">
          <mxGeometry relative="1" as="geometry" />
        </mxCell>
        <mxCell id="vRosTqXco8kiV0ABXzTQ-51" style="edgeStyle=orthogonalEdgeStyle;rounded=0;orthogonalLoop=1;jettySize=auto;html=1;entryX=0;entryY=0.5;entryDx=0;entryDy=0;fontSize=18;fontColor=#000000;strokeWidth=2;" edge="1" parent="1" source="vRosTqXco8kiV0ABXzTQ-24" target="vRosTqXco8kiV0ABXzTQ-42">
          <mxGeometry relative="1" as="geometry" />
        </mxCell>
        <mxCell id="vRosTqXco8kiV0ABXzTQ-24" value="云病历" style="rounded=0;whiteSpace=wrap;html=1;fontSize=18;fontColor=#000000;strokeColor=#000000;strokeWidth=2;" vertex="1" parent="1">
          <mxGeometry x="78" y="311" width="120" height="60" as="geometry" />
        </mxCell>
        <mxCell id="vRosTqXco8kiV0ABXzTQ-31" style="edgeStyle=orthogonalEdgeStyle;rounded=0;orthogonalLoop=1;jettySize=auto;html=1;entryX=0;entryY=0.5;entryDx=0;entryDy=0;fontSize=18;fontColor=#000000;strokeWidth=2;" edge="1" parent="1" source="vRosTqXco8kiV0ABXzTQ-25" target="vRosTqXco8kiV0ABXzTQ-26">
          <mxGeometry relative="1" as="geometry" />
        </mxCell>
        <mxCell id="vRosTqXco8kiV0ABXzTQ-32" style="edgeStyle=orthogonalEdgeStyle;rounded=0;orthogonalLoop=1;jettySize=auto;html=1;entryX=0;entryY=0.5;entryDx=0;entryDy=0;fontSize=18;fontColor=#000000;strokeWidth=2;" edge="1" parent="1" source="vRosTqXco8kiV0ABXzTQ-25" target="vRosTqXco8kiV0ABXzTQ-27">
          <mxGeometry relative="1" as="geometry" />
        </mxCell>
        <mxCell id="vRosTqXco8kiV0ABXzTQ-25" value="划分区域" style="rounded=1;whiteSpace=wrap;html=1;fontSize=18;" vertex="1" parent="1">
          <mxGeometry x="269" y="318.5" width="120" height="45" as="geometry" />
        </mxCell>
        <mxCell id="vRosTqXco8kiV0ABXzTQ-28" value="信息匹配对" style="rounded=1;whiteSpace=wrap;html=1;fontSize=18;" vertex="1" parent="1">
          <mxGeometry x="590" y="318.5" width="120" height="45" as="geometry" />
        </mxCell>
        <mxCell id="vRosTqXco8kiV0ABXzTQ-33" style="edgeStyle=orthogonalEdgeStyle;rounded=0;orthogonalLoop=1;jettySize=auto;html=1;entryX=0;entryY=0.5;entryDx=0;entryDy=0;fontSize=18;fontColor=#000000;strokeWidth=2;" edge="1" parent="1" source="vRosTqXco8kiV0ABXzTQ-27" target="vRosTqXco8kiV0ABXzTQ-28">
          <mxGeometry relative="1" as="geometry" />
        </mxCell>
        <mxCell id="vRosTqXco8kiV0ABXzTQ-34" style="edgeStyle=orthogonalEdgeStyle;rounded=0;orthogonalLoop=1;jettySize=auto;html=1;entryX=0;entryY=0.5;entryDx=0;entryDy=0;fontSize=18;fontColor=#000000;strokeWidth=2;" edge="1" parent="1" source="vRosTqXco8kiV0ABXzTQ-26" target="vRosTqXco8kiV0ABXzTQ-28">
          <mxGeometry relative="1" as="geometry" />
        </mxCell>
        <mxCell id="vRosTqXco8kiV0ABXzTQ-26" value="基于规则字典" style="rounded=1;whiteSpace=wrap;html=1;fontSize=18;" vertex="1" parent="1">
          <mxGeometry x="430" y="283" width="120" height="45" as="geometry" />
        </mxCell>
        <mxCell id="vRosTqXco8kiV0ABXzTQ-27" value="基于模板匹配" style="rounded=1;whiteSpace=wrap;html=1;fontSize=18;" vertex="1" parent="1">
          <mxGeometry x="430" y="357" width="120" height="45" as="geometry" />
        </mxCell>
        <mxCell id="vRosTqXco8kiV0ABXzTQ-38" value="&lt;font style=&quot;font-size: 20px;&quot;&gt;关键信息抽取模块&lt;/font&gt;" style="text;html=1;strokeColor=none;fillColor=none;align=center;verticalAlign=middle;whiteSpace=wrap;rounded=0;dashed=1;fontSize=18;fontColor=#9999FF;" vertex="1" parent="1">
          <mxGeometry x="256" y="239" width="165" height="37" as="geometry" />
        </mxCell>
        <mxCell id="vRosTqXco8kiV0ABXzTQ-48" style="edgeStyle=orthogonalEdgeStyle;rounded=0;orthogonalLoop=1;jettySize=auto;html=1;fontSize=18;fontColor=#000000;strokeWidth=2;" edge="1" parent="1" source="vRosTqXco8kiV0ABXzTQ-42" target="vRosTqXco8kiV0ABXzTQ-43">
          <mxGeometry relative="1" as="geometry" />
        </mxCell>
        <mxCell id="vRosTqXco8kiV0ABXzTQ-42" value="信息检索" style="rounded=1;whiteSpace=wrap;html=1;fontSize=18;" vertex="1" parent="1">
          <mxGeometry x="269" y="489" width="120" height="45" as="geometry" />
        </mxCell>
        <mxCell id="vRosTqXco8kiV0ABXzTQ-46" style="edgeStyle=orthogonalEdgeStyle;rounded=0;orthogonalLoop=1;jettySize=auto;html=1;entryX=0;entryY=0.5;entryDx=0;entryDy=0;entryPerimeter=0;fontSize=18;fontColor=#000000;strokeWidth=2;" edge="1" parent="1" source="vRosTqXco8kiV0ABXzTQ-43" target="vRosTqXco8kiV0ABXzTQ-45">
          <mxGeometry relative="1" as="geometry" />
        </mxCell>
        <mxCell id="vRosTqXco8kiV0ABXzTQ-43" value="近似最近邻算法" style="rounded=1;whiteSpace=wrap;html=1;fontSize=18;" vertex="1" parent="1">
          <mxGeometry x="432" y="489" width="140" height="45" as="geometry" />
        </mxCell>
        <mxCell id="vRosTqXco8kiV0ABXzTQ-45" value="索引库" style="shape=cylinder3;whiteSpace=wrap;html=1;boundedLbl=1;backgroundOutline=1;size=15;fontSize=18;fontColor=#000000;strokeColor=#000000;strokeWidth=2;" vertex="1" parent="1">
          <mxGeometry x="639" y="473" width="71" height="77" as="geometry" />
        </mxCell>
        <mxCell id="vRosTqXco8kiV0ABXzTQ-52" value="&lt;font style=&quot;font-size: 20px;&quot;&gt;信息检索模块&lt;/font&gt;" style="text;html=1;strokeColor=none;fillColor=none;align=center;verticalAlign=middle;whiteSpace=wrap;rounded=0;dashed=1;fontSize=18;fontColor=#FF9933;" vertex="1" parent="1">
          <mxGeometry x="256" y="436" width="127" height="37" as="geometry" />
        </mxCell>
        <mxCell id="vRosTqXco8kiV0ABXzTQ-53" value="&lt;font style=&quot;font-size: 16px;&quot;&gt;内容&lt;/font&gt;" style="text;html=1;strokeColor=none;fillColor=none;align=center;verticalAlign=middle;whiteSpace=wrap;rounded=0;fontSize=18;fontColor=#000000;" vertex="1" parent="1">
          <mxGeometry x="583" y="107" width="60" height="30" as="geometry" />
        </mxCell>
        <mxCell id="vRosTqXco8kiV0ABXzTQ-56" value="&lt;font style=&quot;font-size: 16px;&quot;&gt;内容&lt;/font&gt;" style="text;html=1;strokeColor=none;fillColor=none;align=center;verticalAlign=middle;whiteSpace=wrap;rounded=0;fontSize=18;fontColor=#000000;" vertex="1" parent="1">
          <mxGeometry x="538" y="141" width="60" height="30" as="geometry" />
        </mxCell>
      </root>
    </mxGraphModel>
  </diagram>
</mxfile>
